<svg xmlns="http://www.w3.org/2000/svg" width="256" height="256" viewBox="0 0 100 100"><rect width="100" height="100" rx="50" fill="#74003d"></rect><path d="M39.34 77.90L39.34 77.90Q35.47 77.90 33.22 75.65Q30.97 73.40 30.97 69.53L30.97 69.53L30.97 22.91Q32.05 22.73 34.12 22.42Q36.19 22.10 38.26 22.10L38.26 22.10Q42.76 22.10 44.73 23.63Q46.72 25.16 46.72 29.57L46.72 29.57L46.72 65.21L67.33 65.21Q67.95 66.20 68.50 67.82Q69.03 69.44 69.03 71.33L69.03 71.33Q69.03 74.66 67.59 76.28Q66.16 77.90 63.63 77.90L63.63 77.90L39.34 77.90Z" fill="#fff"></path></svg>